<svg width="1868" height="467" viewBox="0 0 1868 467" fill="none" xmlns="http://www.w3.org/2000/svg">
<g clip-path="url(#clip0_1443_2)">
<path d="M936.964 363.469C935.728 362.975 934.493 362.481 933.257 362.234C936.469 360.751 938.94 358.528 940.917 355.563C942.894 352.597 943.882 349.138 943.882 344.691C943.882 338.266 941.411 333.324 936.469 329.865C931.527 326.159 924.609 324.429 915.467 324.429H880.133V403.498H917.69C927.821 403.498 935.234 401.521 940.423 397.815C945.612 394.109 948.083 388.92 948.083 382.001C948.083 375.083 947.094 373.6 945.117 370.635C943.141 367.67 940.423 365.199 936.964 363.716V363.469ZM931.775 390.649C928.562 392.626 923.621 393.861 917.443 393.861H891.499V367.67H890.511V358.528H891.499V333.324H914.725C920.408 333.324 924.856 334.313 928.068 336.537C931.28 338.513 932.763 341.725 932.763 345.926C932.763 350.127 931.28 353.339 928.068 355.315C924.856 357.292 920.408 358.528 914.725 358.528H891.499V367.67H917.443C923.621 367.67 928.562 368.658 931.775 370.882C934.987 372.859 936.716 376.318 936.716 381.013C936.716 385.707 934.987 388.92 931.775 390.896V390.649Z" fill="white"/>
<path d="M999.475 346.42C995.028 343.949 989.839 342.467 984.156 342.467C978.473 342.467 973.284 343.702 968.836 346.42C964.388 349.138 960.682 352.597 958.211 357.292C955.493 361.987 954.258 367.176 954.258 373.106C954.258 379.036 955.493 384.225 958.211 388.92C960.929 393.614 964.636 397.074 969.577 399.792C974.519 402.51 979.955 403.745 986.38 403.745C992.804 403.745 995.769 403.004 999.969 401.274C1003.92 399.545 1007.38 397.321 1010.1 394.109L1004.17 387.19C1001.95 389.661 999.475 391.391 996.51 392.626C993.545 393.861 990.333 394.356 986.874 394.356C983.414 394.356 978.72 393.367 975.507 391.638C972.295 389.908 969.577 387.437 967.848 384.472C966.612 382.248 965.624 379.53 965.377 376.812H1013.81C1013.81 376.318 1013.81 375.824 1013.81 375.083C1013.81 374.588 1013.81 373.847 1013.81 373.6C1013.81 367.423 1012.57 361.987 1010.1 357.292C1007.63 352.597 1004.17 349.138 999.722 346.42H999.475ZM964.883 368.905C965.13 366.187 965.871 363.717 967.106 361.493C968.836 358.528 971.06 356.057 974.025 354.327C976.99 352.597 980.202 351.856 984.156 351.856C988.109 351.856 991.321 352.597 994.286 354.327C997.251 356.057 999.475 358.281 1001.2 361.493C1002.44 363.717 1003.18 366.187 1003.43 369.152H964.883V368.905Z" fill="white"/>
<path d="M1044.2 342.714C1039.5 342.714 1034.81 343.455 1030.61 344.691C1026.41 345.926 1022.7 347.903 1019.49 350.374L1023.94 358.528C1026.41 356.551 1029.13 355.068 1032.59 353.833C1036.05 352.597 1039.5 352.103 1042.96 352.103C1048.4 352.103 1052.35 353.339 1055.07 355.81C1057.79 358.281 1059.02 361.987 1059.02 366.435V368.658H1041.98C1036.05 368.658 1031.35 369.4 1027.89 371.129C1024.43 372.612 1021.96 374.836 1020.23 377.306C1018.75 380.024 1018.01 382.99 1018.01 386.202C1018.01 389.414 1019 392.626 1020.73 395.344C1022.46 398.062 1025.17 400.039 1028.39 401.521C1031.6 403.004 1035.55 403.745 1040 403.745C1044.45 403.745 1050.13 402.757 1053.59 400.533C1056.06 399.05 1058.04 397.321 1059.52 395.097V403.004H1069.9V366.929C1069.9 358.775 1067.67 352.597 1063.23 348.644C1058.78 344.691 1052.35 342.714 1044.2 342.714ZM1059.02 384.719C1057.79 388.178 1055.57 390.896 1052.35 392.626C1049.39 394.356 1045.68 395.344 1041.73 395.344C1037.78 395.344 1034.32 394.356 1032.09 392.626C1029.87 390.896 1028.63 388.426 1028.63 385.46C1028.63 382.495 1029.62 380.766 1031.35 379.036C1033.33 377.306 1036.79 376.318 1042.22 376.318H1059.02V384.719Z" fill="white"/>
<path d="M1123.52 374.094C1123.52 378.295 1122.78 382.001 1121.3 384.966C1119.81 387.931 1117.59 390.155 1114.87 391.638C1112.15 393.12 1108.69 393.861 1104.99 393.861C1101.28 393.861 1095.85 392.379 1093.13 389.414C1090.41 386.449 1088.93 382.001 1088.93 376.318V343.208H1078.05V377.554C1078.05 383.484 1079.04 388.178 1081.27 392.132C1083.49 396.085 1086.46 398.803 1090.41 400.78C1094.36 402.757 1098.81 403.498 1104 403.498C1109.19 403.498 1113.39 402.51 1117.09 400.286C1120.06 398.556 1122.28 396.579 1124.26 393.861V402.757H1134.64V342.961H1123.77V373.847L1123.52 374.094Z" fill="white"/>
<path d="M1207.78 390.896L1187.02 343.208H1160.83V330.112H1149.96V343.208H1139.83V352.103H1149.96V384.966C1149.96 390.896 1151.69 395.591 1154.9 398.803C1158.11 402.015 1162.81 403.745 1168.98 403.745C1175.16 403.745 1173.93 403.498 1176.15 402.757C1178.37 402.015 1180.35 401.027 1182.08 399.545L1178.62 391.885C1176.4 393.862 1173.43 394.603 1170.22 394.603C1167.01 394.603 1164.78 393.614 1163.3 391.885C1161.57 390.155 1160.83 387.684 1160.83 384.472V352.103H1177.88V348.15L1202.09 403.004L1200.12 407.204C1198.64 410.664 1196.91 413.135 1195.18 414.37C1193.45 415.605 1191.22 416.347 1188.75 416.347C1186.28 416.347 1184.8 415.853 1183.07 415.111C1181.34 414.37 1179.61 413.382 1178.13 411.899L1173.43 420.053C1175.41 421.783 1177.63 423.265 1180.35 424.254C1183.07 425.242 1185.79 425.736 1188.75 425.736C1191.72 425.736 1194.68 425.242 1197.15 424.254C1199.62 423.265 1202.09 421.536 1204.32 419.065C1206.54 416.594 1208.27 413.382 1210 409.181L1238.91 343.455H1228.29L1207.53 391.144L1207.78 390.896Z" fill="white"/>
<path d="M1285.86 341.725C1288.58 339.007 1291.79 336.784 1295.74 335.301C1299.45 333.818 1303.65 333.077 1308.1 333.077C1312.54 333.077 1316.5 333.818 1320.2 335.301C1323.91 336.784 1327.37 339.254 1330.33 342.467L1337.75 335.301C1334.04 331.348 1329.84 328.135 1324.65 326.159C1319.46 324.182 1313.78 322.947 1307.85 322.947C1301.92 322.947 1296.24 323.935 1291.29 325.912C1286.11 327.888 1281.9 330.606 1277.95 334.313C1274.24 338.019 1271.28 342.22 1269.06 347.161C1267.08 352.103 1265.84 357.539 1265.84 363.222C1265.84 368.905 1266.83 374.588 1269.06 379.283C1271.03 384.225 1274 388.425 1277.7 392.132C1281.41 395.838 1285.86 398.556 1290.8 400.533C1295.99 402.51 1301.42 403.498 1307.35 403.498C1313.28 403.498 1319.22 402.51 1324.4 400.286C1329.59 398.309 1334.04 395.097 1337.5 390.896L1330.09 383.731C1327.12 386.943 1323.66 389.414 1319.96 390.896C1316.25 392.379 1312.05 393.12 1307.85 393.12C1303.65 393.12 1299.2 392.379 1295.49 390.896C1291.79 389.414 1288.33 387.19 1285.61 384.472C1282.89 381.754 1280.67 378.542 1279.19 374.835C1277.7 371.129 1276.96 367.176 1276.96 362.728C1276.96 358.28 1277.7 354.327 1279.19 350.621C1280.67 346.914 1282.89 343.702 1285.61 340.984L1285.86 341.725Z" fill="white"/>
<path d="M1387.66 346.667C1382.96 343.949 1377.52 342.714 1371.59 342.714C1365.66 342.714 1360.23 343.949 1355.53 346.667C1350.84 349.385 1347.13 352.845 1344.41 357.539C1341.7 361.987 1340.46 367.423 1340.46 373.353C1340.46 379.283 1341.7 384.472 1344.41 389.167C1347.13 393.861 1350.84 397.321 1355.53 400.039C1360.23 402.757 1365.66 403.992 1371.59 403.992C1377.52 403.992 1382.96 402.757 1387.66 400.039C1392.35 397.321 1396.06 393.861 1398.77 389.167C1401.49 384.472 1402.73 379.283 1402.73 373.353C1402.73 367.423 1401.49 362.234 1398.77 357.539C1396.06 352.845 1392.35 349.385 1387.66 346.667ZM1389.14 384.225C1387.41 387.437 1384.94 389.908 1381.97 391.638C1379.01 393.367 1375.55 394.356 1371.59 394.356C1367.64 394.356 1364.43 393.367 1361.22 391.638C1358.25 389.908 1355.78 387.437 1354.05 384.225C1352.32 381.013 1351.33 377.306 1351.33 373.106C1351.33 368.905 1352.32 365.199 1354.05 361.987C1355.78 358.775 1358.25 356.551 1361.22 354.821C1364.18 353.092 1367.64 352.103 1371.59 352.103C1375.55 352.103 1378.76 353.092 1381.97 354.821C1384.94 356.551 1387.41 359.022 1389.14 361.987C1390.87 365.199 1391.86 368.905 1391.86 373.106C1391.86 377.306 1390.87 381.013 1389.14 384.225Z" fill="white"/>
<path d="M1455.85 345.432C1452.15 343.455 1447.95 342.467 1443 342.467C1438.06 342.467 1432.87 343.455 1428.67 345.679C1425.71 347.409 1423.24 349.385 1421.26 352.103V342.961H1410.88V402.757H1421.75V371.87C1421.75 367.423 1422.5 363.964 1423.98 360.999C1425.46 358.033 1427.68 355.81 1430.65 354.327C1433.62 352.845 1436.83 352.103 1440.78 352.103C1444.73 352.103 1449.92 353.586 1452.64 356.551C1455.61 359.516 1456.84 363.964 1456.84 369.647V402.757H1467.71V368.411C1467.71 362.481 1466.73 357.786 1464.5 353.833C1462.52 350.127 1459.56 347.161 1455.85 345.185V345.432Z" fill="white"/>
<path d="M1512.93 343.208H1495.64V338.019C1495.64 334.56 1496.38 331.842 1498.11 330.112C1499.84 328.383 1502.06 327.394 1505.27 327.394C1508.48 327.394 1508.48 327.641 1509.72 328.136C1511.2 328.63 1512.44 329.371 1513.43 330.112L1516.64 321.958C1515.16 320.723 1513.43 319.982 1511.2 319.24C1508.98 318.746 1506.75 318.499 1504.53 318.499C1498.35 318.499 1493.41 320.229 1489.95 323.688C1486.49 327.147 1484.76 331.842 1484.76 337.772V343.208H1474.63V352.103H1484.76V403.004H1495.64V352.103H1512.68V343.208H1512.93Z" fill="white"/>
<path d="M1557.66 346.42C1553.21 343.949 1548.02 342.467 1542.34 342.467C1536.65 342.467 1531.46 343.702 1527.02 346.42C1522.57 349.138 1518.86 352.597 1516.39 357.292C1513.67 361.987 1512.44 367.176 1512.44 373.106C1512.44 379.036 1513.67 384.225 1516.39 388.92C1519.11 393.614 1522.82 397.074 1527.76 399.792C1532.7 402.51 1538.13 403.745 1544.56 403.745C1550.98 403.745 1553.95 403.004 1558.15 401.274C1562.1 399.545 1565.56 397.321 1568.28 394.109L1562.35 387.19C1560.13 389.661 1557.66 391.391 1554.69 392.626C1551.72 393.861 1548.51 394.356 1545.05 394.356C1541.59 394.356 1536.9 393.367 1533.69 391.638C1530.48 389.908 1527.76 387.437 1526.03 384.472C1524.79 382.248 1523.8 379.53 1523.56 376.812H1571.99C1571.99 376.318 1571.99 375.824 1571.99 375.083C1571.99 374.588 1571.99 373.847 1571.99 373.6C1571.99 367.423 1570.75 361.987 1568.28 357.292C1565.81 352.597 1562.35 349.138 1557.9 346.42H1557.66ZM1523.06 368.905C1523.31 366.187 1524.3 363.717 1525.53 361.493C1527.26 358.528 1529.49 356.057 1532.45 354.327C1535.42 352.597 1538.63 351.856 1542.58 351.856C1546.54 351.856 1549.75 352.597 1552.71 354.327C1555.68 356.057 1557.9 358.281 1559.63 361.493C1560.87 363.717 1561.61 366.187 1561.86 369.152H1523.31L1523.06 368.905Z" fill="white"/>
<path d="M1592.74 353.339V343.208H1582.37V403.004H1593.24V373.106C1593.24 366.681 1594.97 361.492 1598.43 358.033C1601.89 354.574 1606.33 352.844 1612.27 352.844H1613.5C1613.99 352.844 1614.24 352.844 1614.74 352.844V342.219C1609.05 342.219 1604.11 343.208 1600.4 345.432C1597.19 347.161 1594.72 349.632 1592.99 352.844L1592.74 353.339Z" fill="white"/>
<path d="M1660.19 346.42C1655.75 343.949 1650.56 342.467 1644.87 342.467C1639.19 342.467 1634 343.702 1629.55 346.42C1625.11 349.138 1621.4 352.597 1618.93 357.292C1616.21 361.987 1614.98 367.176 1614.98 373.106C1614.98 379.036 1616.21 384.225 1618.93 388.92C1621.65 393.614 1625.35 397.074 1630.3 399.792C1635.24 402.51 1640.67 403.745 1647.1 403.745C1653.52 403.745 1656.49 403.004 1660.69 401.274C1664.64 399.545 1668.1 397.321 1670.82 394.109L1664.89 387.19C1662.66 389.661 1660.19 391.391 1657.23 392.626C1654.26 393.861 1651.05 394.356 1647.59 394.356C1644.13 394.356 1639.44 393.367 1636.23 391.638C1633.01 389.908 1630.3 387.437 1628.57 384.472C1627.33 382.248 1626.34 379.53 1626.1 376.812H1674.53C1674.53 376.318 1674.53 375.824 1674.53 375.083C1674.53 374.588 1674.53 373.847 1674.53 373.6C1674.53 367.423 1673.29 361.987 1670.82 357.292C1668.35 352.597 1664.89 349.138 1660.44 346.42H1660.19ZM1625.6 368.905C1625.85 366.187 1626.59 363.717 1627.83 361.493C1629.55 358.528 1631.78 356.057 1634.74 354.327C1637.71 352.597 1640.92 351.856 1644.87 351.856C1648.83 351.856 1652.04 352.597 1655.01 354.327C1657.97 356.057 1660.19 358.281 1661.92 361.493C1663.16 363.717 1663.9 366.187 1664.15 369.152H1625.6V368.905Z" fill="white"/>
<path d="M1729.63 345.432C1725.92 343.455 1721.47 342.467 1716.78 342.467C1712.08 342.467 1706.65 343.455 1702.45 345.679C1699.48 347.409 1697.01 349.385 1695.03 352.103V342.961H1684.66V402.757H1695.53V371.87C1695.53 367.423 1696.27 363.964 1697.75 360.999C1699.23 358.033 1701.46 355.81 1704.42 354.327C1707.39 352.845 1710.6 352.103 1714.55 352.103C1718.51 352.103 1723.7 353.586 1726.41 356.551C1729.13 359.516 1730.62 363.964 1730.62 369.647V402.757H1741.49V368.411C1741.49 362.481 1740.5 357.786 1738.27 353.833C1736.3 350.127 1733.33 347.161 1729.63 345.185V345.432Z" fill="white"/>
<path d="M1770.4 354.821C1773.36 353.092 1777.07 352.103 1780.78 352.103C1784.48 352.103 1786.95 352.845 1789.92 354.08C1792.64 355.563 1795.11 357.539 1797.08 360.504L1805.24 355.315C1803.01 351.115 1799.55 347.903 1795.35 345.679C1791.15 343.455 1786.21 342.467 1780.78 342.467C1775.34 342.467 1769.16 343.702 1764.47 346.42C1759.77 349.138 1756.07 352.597 1753.1 357.292C1750.38 361.987 1749.15 367.176 1749.15 373.106C1749.15 379.036 1750.63 384.225 1753.1 388.92C1755.82 393.614 1759.53 397.074 1764.47 399.792C1769.16 402.51 1774.6 403.745 1780.78 403.745C1786.95 403.745 1790.91 402.757 1795.35 400.533C1799.55 398.309 1803.01 395.097 1805.24 390.896L1797.08 385.708C1795.11 388.673 1792.88 390.896 1789.92 392.132C1787.2 393.614 1783.99 394.109 1780.78 394.109C1777.56 394.109 1773.36 393.12 1770.4 391.391C1767.19 389.661 1764.96 387.19 1762.99 383.978C1761.26 380.766 1760.27 377.059 1760.27 372.859C1760.27 368.658 1761.26 364.952 1762.99 361.74C1764.72 358.528 1767.19 356.304 1770.4 354.574V354.821Z" fill="white"/>
<path d="M1853.91 346.42C1849.47 343.949 1844.28 342.467 1838.59 342.467C1832.91 342.467 1827.72 343.702 1823.27 346.42C1818.83 349.138 1815.12 352.597 1812.65 357.292C1809.93 361.987 1808.7 367.176 1808.7 373.106C1808.7 379.036 1809.93 384.225 1812.65 388.92C1815.37 393.614 1819.07 397.074 1824.01 399.792C1828.96 402.51 1834.39 403.745 1840.82 403.745C1847.24 403.745 1850.21 403.004 1854.41 401.274C1858.36 399.545 1861.82 397.321 1864.54 394.109L1858.61 387.19C1856.38 389.661 1853.91 391.391 1850.95 392.626C1847.98 393.861 1844.77 394.356 1841.31 394.356C1837.85 394.356 1833.16 393.367 1829.94 391.638C1826.73 389.908 1824.01 387.437 1822.29 384.472C1821.05 382.248 1820.06 379.53 1819.81 376.812H1868.24C1868.24 376.318 1868.24 375.824 1868.24 375.083C1868.24 374.588 1868.24 373.847 1868.24 373.6C1868.24 367.423 1867.01 361.987 1864.54 357.292C1862.07 352.597 1858.61 349.138 1854.16 346.42H1853.91ZM1819.32 368.905C1819.57 366.187 1820.56 363.717 1821.79 361.493C1823.52 358.528 1825.74 356.057 1828.71 354.327C1831.67 352.597 1834.89 351.856 1838.84 351.856C1842.79 351.856 1846.01 352.597 1848.97 354.327C1851.94 356.057 1854.16 358.281 1855.89 361.493C1857.12 363.717 1857.87 366.187 1858.11 369.152H1819.57L1819.32 368.905Z" fill="white"/>
<path d="M522.104 423.512L571.028 377.553C580.911 368.164 588.324 360.01 593.513 352.35C598.455 344.938 601.914 337.772 603.891 330.853C605.867 323.935 606.856 317.263 606.856 310.592C606.856 297.743 603.644 286.624 596.972 277.235C590.301 267.845 581.158 260.68 569.298 255.738C557.438 250.549 543.601 248.078 527.787 248.078C511.973 248.078 491.959 251.538 477.628 258.703C470.462 262.162 464.285 266.116 458.602 270.811H415.361L463.791 222.381L480.346 205.826L453.166 178.646L388.181 243.384V218.675H349.635V243.384L324.926 218.675H270.566L322.455 270.563H259.447C253.517 264.139 246.104 259.197 236.962 255.244C225.102 250.055 211.265 247.584 195.451 247.584C179.637 247.584 159.87 251.043 145.292 258.209C130.713 265.127 119.594 274.764 111.688 286.871L147.021 309.851C152.21 302.932 158.635 297.496 166.047 293.79C173.46 290.084 181.861 288.354 190.756 288.354C199.652 288.354 210.523 290.578 216.207 295.272C221.89 299.967 224.608 306.392 224.608 314.545C224.608 322.699 224.113 321.711 223.125 325.665C222.137 329.618 220.16 333.818 216.948 338.266C213.736 342.714 209.041 347.903 202.617 353.833L120.83 430.925V462.552H281.191V422.524H189.521L238.445 376.565C248.328 367.176 255.741 359.022 260.93 351.362C265.872 343.949 269.331 336.784 271.308 329.865C273.284 322.947 274.026 316.275 274.026 309.604C274.026 302.932 274.026 308.615 274.026 308.121H321.961L256.976 373.106L284.156 400.286L349.141 335.301V399.544H387.687V335.301L452.672 400.286L479.852 373.106L414.867 308.121H477.381L478.863 309.109C484.052 302.191 490.476 296.755 497.889 293.049C505.302 289.342 513.703 287.613 522.598 287.613C531.493 287.613 542.365 289.836 548.048 294.531C553.731 299.226 556.449 305.65 556.449 313.804C556.449 321.958 555.955 320.97 554.967 324.923C553.979 328.877 552.002 333.077 548.79 337.525C545.577 341.972 540.883 347.161 534.458 353.091L452.672 430.184V461.811H613.033V421.783H521.363L522.104 423.512ZM388.181 309.357H350.129V271.305H388.181V309.357Z" fill="#FF4C00"/>
<path d="M786.489 361.74C780.064 351.856 771.169 344.196 760.297 338.76C749.425 333.324 737.071 330.606 723.481 330.606C709.891 330.606 704.208 332.089 695.807 334.56C687.406 337.278 680.24 341.231 674.063 346.667C672.827 347.656 671.839 348.644 670.851 349.879C671.592 330.359 677.028 315.287 687.159 304.662C698.03 293.543 712.609 287.86 730.646 287.86C748.684 287.86 744.73 288.601 751.402 290.084C753.873 290.578 756.097 291.319 758.32 292.307L788.218 262.657C780.806 257.962 771.91 254.503 761.78 252.032C755.849 250.549 749.919 249.561 743.742 249.067C739.047 248.573 734.6 248.325 729.905 248.325C708.655 248.325 689.629 252.773 673.569 261.668C657.261 270.564 644.659 283.412 635.517 300.461C626.374 317.511 621.68 338.019 621.68 362.728C621.68 387.437 625.633 404.486 633.293 420.053C640.953 435.62 652.072 447.48 666.156 455.387C680.24 463.294 697.042 467.247 716.315 467.247C735.588 467.247 744.978 464.282 757.085 458.599C769.192 452.916 778.829 444.762 785.747 434.137C792.913 423.512 796.372 411.158 796.372 396.827C796.372 382.495 793.16 371.87 786.489 361.987V361.74ZM744.236 415.605C741.271 420.547 737.071 424.253 731.635 426.724C726.199 429.195 720.269 430.431 713.35 430.431C706.432 430.431 698.772 429.195 693.336 426.477C687.9 423.759 683.699 420.053 680.734 415.358C677.769 410.664 676.039 405.228 676.039 399.544C676.039 393.861 677.522 387.931 680.734 382.989C683.946 378.295 688.147 374.588 693.583 371.623C699.019 368.658 705.443 367.423 712.609 367.423C723.481 367.423 732.129 370.388 738.8 376.071C745.472 381.754 748.684 389.661 748.684 399.297C748.684 408.934 747.201 411.158 744.236 415.852V415.605Z" fill="#FF4C00"/>
<path d="M987.372 177.411C981.442 179.387 973.782 180.376 964.392 180.376C955.003 180.376 939.683 178.399 927.329 174.198C914.974 170.245 904.597 165.056 895.949 158.632L879.641 194.707C888.783 201.872 901.137 207.555 916.704 212.003C932.024 216.451 948.085 218.675 964.64 218.675C981.195 218.675 1000.47 215.709 1013.56 209.779C1026.66 203.849 1036.3 195.942 1042.72 186.306C1049.14 176.669 1052.36 166.044 1052.36 154.184C1052.36 142.324 1050.13 134.664 1045.69 127.251C1041.24 120.086 1035.55 114.403 1028.39 110.202C1021.22 106.002 1013.56 102.295 1004.92 99.5772C996.514 96.8592 987.866 94.3883 979.218 92.6587C970.57 90.682 962.663 88.9523 955.497 86.9756C948.332 85.246 942.649 82.528 938.201 79.0687C934 75.6095 931.777 71.1618 931.777 65.7259C931.777 60.2899 933.259 57.5719 935.73 53.8656C938.448 50.4063 942.649 47.4412 948.332 45.4645C954.015 43.4878 961.674 42.2523 971.064 42.2523C980.453 42.2523 989.596 43.7349 999.479 46.2058C1004.42 47.4412 1009.36 49.1708 1014.06 51.1476L1043.21 21.991C1033.82 16.0608 1022.71 11.6132 1009.86 8.40101C997.008 5.18884 984.16 3.7063 971.064 3.7063C951.544 3.7063 935.236 6.67138 922.387 12.6015C909.538 18.5317 899.655 26.1915 893.478 36.0751C887.053 45.7116 884.088 56.5835 884.088 68.4439C884.088 80.3042 886.312 88.4581 890.513 95.6238C894.713 102.789 900.643 108.72 907.809 113.167C914.974 117.615 922.881 121.074 931.53 123.792C940.178 126.51 948.579 128.734 957.227 130.711C965.628 132.687 973.535 134.664 980.7 136.641C987.866 138.617 993.549 141.335 997.997 144.548C1002.44 147.76 1004.42 152.207 1004.42 157.643C1004.42 163.079 1002.94 165.797 1000.22 169.009C997.502 172.222 993.055 174.94 987.372 176.916V177.411Z" fill="white"/>
<path d="M1191.97 83.0221C1188.26 78.3274 1183.81 74.6211 1178.62 71.4089C1168.99 65.7258 1157.37 62.7607 1143.78 62.7607C1130.19 62.7607 1116.11 65.9729 1104.5 72.6443C1092.88 79.3158 1083.74 88.4581 1077.07 100.318C1070.4 112.179 1066.94 126.016 1066.94 142.077C1066.94 158.137 1070.15 172.222 1077.07 184.082C1083.74 195.695 1092.88 205.085 1104.5 211.509C1116.11 218.18 1129.2 221.392 1143.78 221.392C1158.36 221.392 1168.24 218.674 1177.88 212.744C1182.33 210.026 1186.28 206.814 1189.99 202.861V278.223H1234.71V65.2316H1191.97V83.0221ZM1185.54 165.056C1182.08 171.48 1177.39 176.422 1171.46 179.881C1165.53 183.341 1158.85 185.07 1151.44 185.07C1144.03 185.07 1137.61 183.341 1131.68 179.881C1125.74 176.422 1121.05 171.48 1117.59 165.056C1114.13 158.632 1112.4 150.972 1112.4 142.324C1112.4 133.676 1114.13 125.769 1117.59 119.344C1121.05 112.92 1125.99 108.225 1131.68 104.766C1137.61 101.554 1144.28 99.8242 1151.44 99.8242C1158.61 99.8242 1165.53 101.554 1171.46 104.766C1177.39 108.225 1182.08 112.92 1185.54 119.344C1189 125.769 1190.98 133.428 1190.98 142.324C1190.98 151.219 1189.25 158.632 1185.54 165.056Z" fill="white"/>
<path d="M1293.27 214.227C1303.15 219.169 1314.76 221.64 1327.61 221.64C1340.46 221.64 1350.35 218.922 1360.23 213.486C1366.16 210.273 1371.1 206.073 1375.3 201.131V219.416H1417.8V65.2317H1373.33V141.83C1373.33 150.972 1371.84 158.632 1368.63 164.809C1365.42 170.986 1361.22 175.434 1355.78 178.646C1350.35 181.611 1344.42 183.341 1337.5 183.341C1327.61 183.341 1319.95 180.376 1314.52 174.445C1309.08 168.515 1306.36 158.879 1306.36 146.03V65.2317H1261.64V152.207C1261.64 167.774 1264.36 180.87 1270.04 191.248C1275.48 201.625 1283.38 209.285 1293.27 214.227Z" fill="white"/>
<path d="M1504.53 129.228C1488.72 129.228 1475.87 131.205 1466.23 134.911C1456.35 138.618 1449.43 144.054 1444.98 150.972C1440.54 157.891 1438.31 165.797 1438.31 174.94C1438.31 184.082 1440.78 191.742 1445.23 198.66C1449.93 205.826 1456.6 211.262 1465.25 215.463C1473.89 219.663 1484.02 221.64 1495.88 221.64C1507.74 221.64 1520.59 218.922 1529.24 213.733C1535.17 210.274 1539.62 205.579 1543.08 200.143V219.416H1584.84V131.452C1584.84 107.978 1578.41 90.6821 1565.32 79.5631C1552.22 68.444 1533.94 63.0081 1510.46 63.0081C1486.99 63.0081 1486.25 64.4906 1474.39 67.7028C1462.53 70.9149 1452.4 75.6096 1444 81.5398L1459.81 112.673C1465.49 108.226 1472.41 104.766 1480.32 102.295C1488.22 99.5774 1496.38 98.3419 1504.53 98.3419C1516.64 98.3419 1525.54 101.06 1531.22 106.496C1537.15 111.932 1539.87 119.345 1539.87 128.734C1539.87 128.981 1504.78 128.981 1504.78 128.981L1504.53 129.228ZM1539.62 170.739C1537.15 177.905 1532.95 183.094 1526.77 186.553C1520.84 190.012 1513.92 191.742 1506.26 191.742C1498.6 191.742 1492.43 190.012 1487.98 186.8C1483.53 183.341 1481.31 178.893 1481.31 173.21C1481.31 167.527 1483.28 163.821 1487.24 160.362C1491.19 156.902 1498.36 155.173 1508.73 155.173H1539.37V170.986L1539.62 170.739Z" fill="white"/>
<path d="M1652.29 146.524C1652.29 131.699 1656 120.827 1663.41 113.908C1670.82 106.743 1680.95 103.283 1693.55 103.283C1706.16 103.283 1696.77 103.284 1698.25 103.531C1699.73 103.531 1701.46 104.025 1703.19 104.272V62.7607C1688.61 62.7607 1676.26 65.4787 1666.13 71.1618C1659.7 74.8681 1654.27 79.5629 1650.07 85.2459V64.9846H1607.32V219.169H1652.04V146.277L1652.29 146.524Z" fill="white"/>
<path d="M1830.44 215.215C1841.06 211.015 1849.96 204.838 1857.13 196.684L1833.4 170.986C1828.22 175.928 1822.53 179.635 1816.36 182.105C1810.18 184.576 1803.01 185.812 1795.11 185.812C1787.2 185.812 1777.81 184.082 1770.89 180.87C1764.22 177.411 1759.03 172.716 1755.08 166.292C1752.85 162.832 1751.37 159.126 1750.63 154.926H1867.26C1867.26 152.949 1867.75 150.972 1867.75 148.748C1867.75 146.524 1868 144.548 1868 142.818C1868 126.263 1864.54 111.932 1857.37 100.072C1850.21 88.2112 1840.57 79.0689 1828.46 72.6446C1816.36 66.2202 1802.77 63.0081 1787.69 63.0081C1772.62 63.0081 1758.04 66.4673 1745.44 73.1387C1732.84 79.8102 1723.2 89.4467 1716.28 101.307C1709.37 113.414 1705.91 127.004 1705.91 142.324C1705.91 157.644 1709.61 171.233 1716.78 183.094C1723.94 194.954 1734.32 204.591 1747.42 211.262C1760.51 218.181 1775.83 221.64 1793.62 221.64C1811.41 221.64 1819.81 219.416 1830.69 215.215H1830.44ZM1754.34 115.885C1757.55 109.955 1762.24 105.26 1767.93 101.801C1773.86 98.3419 1780.53 96.8594 1788.19 96.8594C1795.85 96.8594 1802.52 98.589 1808.2 101.801C1813.88 105.26 1818.58 109.708 1821.79 115.638C1824.02 119.592 1825.25 124.039 1825.99 128.734H1750.14C1750.88 124.039 1752.36 119.592 1754.34 115.638V115.885Z" fill="white"/>
<path d="M196.931 219.169V4.44751H147.76V134.664L41.0169 4.44751H0V219.169H49.1709V88.9523L155.667 219.169H196.931Z" fill="white"/>
<path d="M678.016 44.7232H746.707V219.169H796.372V44.7232H865.063V4.44751H678.016V44.7232Z" fill="white"/>
<path d="M463.784 222.628L528.769 157.89V222.134H567.315V157.89L632.3 222.875L659.48 195.695L594.495 130.711H658.738V92.1645H594.495L659.48 27.1799L632.3 0L567.315 64.9846V0.74127H528.769V64.9846L464.031 0L436.852 27.1799L501.836 92.1645H437.593V130.711H501.836L444.264 188.283L471.444 215.462L464.279 222.628H463.784ZM567.068 103.037V130.463H529.016V92.4116H567.068V103.037Z" fill="white"/>
<path d="M349.879 219.169H388.425H403.498V179.14H286.871V129.475H386.448V90.6819H286.871V44.229H399.544V4.44751H237.453V219.169H270.81H325.17H349.879Z" fill="white"/>
</g>
<defs>
<clipPath id="clip0_1443_2">
<rect width="1868" height="467" fill="white"/>
</clipPath>
</defs>
</svg>
