<?xml version="1.0" encoding="UTF-8"?>
<svg id="_레이어_2" data-name="레이어 2" xmlns="http://www.w3.org/2000/svg" viewBox="0 0 485.8 221.4">
  <defs>
    <style>
      .cls-1 {
        fill: #fff;
      }
    </style>
  </defs>
  <g id="_레이어_1-2" data-name="레이어 1">
    <g>
      <path class="cls-1" d="M73.9,93.4c-9.2,0-14.8-7.2-14.8-14.6s2.5-11.7,5.1-15.4c-2.1-.4-3.3-.4-6.2-.4-16.8,0-30.4,11.3-30.4,38.6s13.5,39.6,30,39.6,18.1-2.7,28.1-6l1.2,2.5c-12.3,11.5-25.2,17.6-39.8,17.6-26.5,0-47.2-19.3-47.2-47.8s21.1-51.7,52.3-51.7,35.3,10.3,35.3,22.2-5.5,15.4-13.7,15.4h0Z"/>
      <path class="cls-1" d="M161.3,86.2c-7.8,0-13.7-5.1-15.6-14-6.4.4-10.3,3.1-14,7.6v64.4l14.2,4.9v2.9h-52.7v-2.9l12.3-4.9v-68.7l-12.1-9.6v-2.1l36.5-8.6.8.6-.8,18.9.8.4c9.2-13.7,20.5-19.5,29.3-19.5s15.2,6,15.2,15.2-5.3,15.4-14,15.4h0Z"/>
      <path class="cls-1" d="M205.4,100.5c.2,25,5.5,40.6,28.9,40.6s18.9-1.8,31.6-5.3l1.2,2.7c-12.3,9.6-28.5,16.8-41.7,16.8-29.7,0-47.8-19.3-47.8-47.8s24.2-51.7,48.8-51.7,42.3,19.1,41.7,44.7h-62.8ZM242.3,92.3c-.4-20.5-6-30-17.2-30s-18.5,12.7-19.5,32.2l36.7-2.3Z"/>
      <path class="cls-1" d="M385.3,145.9v2.1l-36.9,7.6-.8-.4-1.6-11.1-.8-.4-3.1,2.5c-7.2,5.7-15.6,9.2-24.4,9.2-21.3,0-40.6-15.4-40.6-47s24-52.5,51.3-52.5,12.1.8,17,2.3V22.8l-13.3-9.6v-2.1L370.7,0l1,.6v140.1l13.5,5.1h0ZM332.2,141.6c4.1,0,9.2-1.8,13.1-4.3v-64.4c-5.1-6.6-9.9-10.1-18.9-10.1s-21.3,10.3-21.3,39,9.6,39.8,27.1,39.8Z"/>
      <path class="cls-1" d="M435.3,155.3c-33,0-48-23.4-48-49.9s17.6-49.6,50.5-49.6,48,23.4,48,49.6-17.4,49.9-50.5,49.9ZM436.5,62.4c-14.8,0-21.1,17.4-21.1,43.1s6.4,43.1,21.1,43.1,21.1-17.4,21.1-43.1-6.4-43.1-21.1-43.1Z"/>
      <path class="cls-1" d="M130.4,221v-31.1h12c3.6,0,5.5.5,7.1,1.9,1.6,1.4,2.5,3.7,2.5,6.4s-.9,5.1-3,6.5c.1,0,.3.2.4.3,1.2.9,1.6,1.4,2,2.2.7,1.4,1.1,3.1,1.1,5.1,0,3.1-1,5.5-2.8,7-1.6,1.2-3.3,1.7-6.7,1.7h-12.6ZM136,202.8h5.9c3,0,4.3-1.3,4.3-4.2s-1.3-4.2-4.3-4.2h-5.9v8.4ZM136,216.4h6.5c3,0,4.2-1.4,4.2-4.5s-1.3-4.5-4.2-4.5h-6.5v9ZM172.1,221v-31.1h19.2v4.7h-13.5v8.4h11.5v4.7h-11.5v8.8h13.6v4.7h-19.3ZM229.1,214.9h-11.8l-2,6.1h-6.2l11.3-31.1h5.5l11.3,31.1h-6.2l-2-6.1ZM227.7,210.3l-4.5-13.6-4.5,13.6h9ZM254.6,189.9h5.7v19.5c0,2.7.2,4.1.8,5.1.9,1.7,2.2,2.3,4.7,2.3s4-.7,4.9-2.7c.4-1,.6-2.3.6-4.8v-19.5h5.7v19.5c0,4.6-.5,6.6-1.9,8.5-2,2.5-4.8,3.6-9.3,3.6s-7.8-1.3-9.7-4.1c-1.1-1.7-1.5-3.7-1.5-7.9v-19.5ZM304.7,221v-26.5h-8.5v-4.7h22.7v4.7h-8.5v26.5h-5.7ZM345.6,221v-11.2l-9.6-19.9h6l6.5,14.3,6.5-14.3h6.1l-9.7,19.9v11.2h-5.7Z"/>
    </g>
  </g>
</svg>