<?xml version="1.0" encoding="UTF-8"?>
<svg id="_레이어_2" data-name="레이어 2" xmlns="http://www.w3.org/2000/svg" viewBox="0 0 544.3 207.4">
  <defs>
    <style>
      .cls-1 {
        fill: #fff;
      }
    </style>
  </defs>
  <g id="_레이어_1-2" data-name="레이어 1">
    <g>
      <path class="cls-1" d="M419.8,61c10.6,9,21.5,12.3,34.4,4.9,19.8-17.5,37.6-37.2,56.6-55.5l.7-1.5-7.9-9h-2.2c-18,18.2-35.6,37.1-54.9,54-6.7,3.9-11,1.8-16.3-2.7L378.4,0h-1.4c-1.8,3.7-9.7,6.9-7.2,11.2,17.3,15.2,32.7,35,50.1,49.8Z"/>
      <polygon class="cls-1" points="493.5 91.6 544.3 40.9 534.5 31.2 483.7 81.8 493.5 91.6"/>
      <path class="cls-1" d="M322.4,103.6c-.4-2.1,19.9-18.7,20.7-21.6.6-2.3-8-12.2-11.1-8.9l-27.7,27.6c-1.1,1.5-1.1,3.7,0,5.1,10.5,12,25.3,23,35.3,35.2,4.2,5.2,6.8,9.2,3.6,15.8-2.1,4.3-26.3,28.8-30.9,32.3-1.3,1-4.7,3-6.1,3.2h-69.8c0,0-1.1,1-1.1,1.1v11.5c0,.8,2.8,2.3,3.9,1.8,20.5-1.1,42.3,1.3,62.7,0,5-.3,10-1.2,14.5-3.5,6.8-3.4,26.1-23.3,31.9-29.9,14.2-16.2,13.8-28.2-.4-44.2-7.8-8.8-17.6-16.7-25.5-25.6Z"/>
      <path class="cls-1" d="M486.7,128.5l35.7,34.8.5,3.5-20.4,19.9c-8.9-8-17.7-16.7-26.3-25.1-36.3-36-72.3-72.4-108.6-108.4-11.5-11.5-41.2-45.5-53.7-50.9-2.1-.9-4.2-1.2-6-2.3h-121.6v.7c-1.6,62.8-.3,126.2-.7,189.2.2.7-.5,2.5-1.1,2.5h-28.8c0,0-1.1-1-1.1-1.1v-86.9c0,0-1-1.1-1.1-1.1h-11.5c-.8,0-2.2,3.6-1.8,4.6,2.1,30.4-2.7,64.2,0,94.1.2,2.6.2,4.3,3.2,4.7,16.5,1.9,36.5-1.5,53.3,0l2.1-.7,2.1-191.7h105.7c.3,0,4.7,2.6,5.4,3.2,16.5,16.9,33.6,33.3,50.3,49.9,36.5,36.3,72.8,72.9,109.3,109.1,9.5,9.5,18.7,19.4,28.4,28.7l2.9.7,39.9-40-47.7-48.3c-.9,0-10.9,8.5-8.6,10.8Z"/>
      <path class="cls-1" d="M405.6,160.2l-36.1,35.8c-1.9,2,5.7,9.1,6.9,9.7,1.4.6,2.8.7,4-.3,4.1-5.8,34.2-31.7,34.8-35.7.3-1.8-7.8-9.9-9.5-9.5Z"/>
      <path class="cls-1" d="M153.6,33.7c1.6-2.9-6.9-10.6-9.2-9.9l-32.2,31.1c-7.1,5.6-11.5,4.5-18.7-.4L38.9,0h-2.2c-1.2,2.8-8.9,7.1-7.6,10l52.5,52.4c1.1,1.2,2.7,1.9,4,2.9,12.7,9.8,24,10.3,36.7-.4,10.8-9.1,20.5-21.8,31.3-31.2Z"/>
      <rect class="cls-1" x="44.6" y="137.1" width="14.5" height="69.7"/>
      <path class="cls-1" d="M90,114.9c-3.8-3.8-7.7-7.7-11.5-11.5-1.4-1.4-2.9-2.9-4.3-4.3-17-17.1-34-34.1-51.1-51-4.3-4.2-14.9-16.9-19-19.4-1.5-.9-3-1.4-3.9.5C0,63.2,0,97.3,0,131.4c0,24.6-.1,49.3.1,73.8.5.1,1.4.8,1.7.8h10.8c.6,0,1.3-1.7,1.1-2.5,0-21,0-41.9,0-62.8,0-25.9,0-51.9,0-77.9,0-.7,1.4-2.5,1.8-2.5.5,0,6.5,6.2,7.5,7.2,14.5,14.2,28.7,28.8,43.2,43.1,9.7,9.6,18.8,20.1,29.2,28.8,1.9.2,9.8-7.6,9.4-9.4-.5-2.2-12.4-12.6-14.8-15Z"/>
    </g>
  </g>
</svg>