<?xml version="1.0" encoding="UTF-8"?>
<svg id="_레이어_2" data-name="레이어 2" xmlns="http://www.w3.org/2000/svg" viewBox="0 0 758.7 124.5">
  <defs>
    <style>
      .cls-1 {
        fill: #fff;
      }
    </style>
  </defs>
  <g id="_레이어_1-2" data-name="레이어 1">
    <g id="NaFUTO">
      <g>
        <g>
          <path class="cls-1" d="M31.3,27.1c-17.7,1.5-26.7,13.7-30,30.2-3.4,17.3-.9,35.8,19.3,39.3,17.9,3.1,32-6.1,37.2-23.2,6.9-22.6,2.7-48.6-26.5-46.2ZM43.9,63.5c-1.7,11-5.5,23.4-19.3,21.5-10.8-1.5-9.4-16-8.3-23.9,1.3-9.2,4.5-21.4,15.5-22.4,15-1.5,13.8,14.6,12.2,24.8Z"/>
          <path class="cls-1" d="M246.6,40.3l-2,14.4h23.2c-.8,1.9-.8,10.5-2,11.4l-23.1.7-2.2,17.2h25.3c-.2,3.2-.4,7.2-1,10.3-.1.6-.2,1-.7,1.3h-40.7l9.9-67.2h39.2c.4.4-1,11.1-1.5,11.4l-24.3.4Z"/>
          <path class="cls-1" d="M219.9,28.4l-33.1,67.3c-2.1-.4-12.4.6-13.2-.5l-12.4-66.7h14.4l8.1,46.5,21.7-46.5h14.4Z"/>
          <path class="cls-1" d="M111.7,83c-.4,1.6-1.2,12.6-2.3,12.6h-39.7l9.6-67.2h15.2l-7.6,54.6h24.8Z"/>
          <polygon class="cls-1" points="148.1 28.4 138.3 95.6 123.4 95.6 133 28.4 148.1 28.4"/>
        </g>
        <g>
          <g>
            <path class="cls-1" d="M358.6,0c-34.4,0-62.2,27.9-62.2,62.2s27.9,62.2,62.2,62.2,62.2-27.9,62.2-62.2S393,0,358.6,0ZM392.7,63c-3,21.1-22.8,63.1-50.1,51.3-35.5-15.3-16.4-103.8,22.3-105.9,26.3-1.4,30.6,35.6,27.8,54.6Z"/>
            <path class="cls-1" d="M362.7,46.6c-13.2-1.6-10.5-29.5,2.7-32.2,18.7-3.9,15.7,34.5-2.7,32.2Z"/>
          </g>
          <g>
            <polygon class="cls-1" points="693.5 28.4 684.3 95.1 669.3 95.1 652.8 49.1 645.2 95.1 631.3 95.1 640.9 28.5 657 28.5 673 72.4 680.1 28.4 693.5 28.4"/>
            <path class="cls-1" d="M525,27c-31.8,3.6-41.9,63.8-8.1,69.5,21.4,3.6,35.1-9.4,38.9-29.6,4.6-24.4-2.9-43-30.8-39.9ZM534.8,79.7c-6.7,8.7-21.5,7-22.7-5.1-1-10.2,1.7-34.1,14.5-36,6.4-.9,12.2.7,14,7.4,2.2,7.9-.7,27-5.8,33.6Z"/>
            <path class="cls-1" d="M731.4,57.7h26.8c-.2,14.6-2.2,30.7-17.3,37-14.3,5.9-32.4,1.7-37.8-14-4.4-13,.4-37.3,10.9-46.8,13.3-12,40.2-9.6,44.7,10.1l-13.1,4.1c-2.2-9.7-13.5-13.2-20.9-6.5-5.2,4.8-7.6,15.7-8.4,22.5-.9,8.6-.9,19.3,9.9,20.8,10.5,1.4,16.6-5.8,17.8-15.5h-14.2l1.5-11.6Z"/>
            <path class="cls-1" d="M625.7,28.4c0,3.6-.6,7.2-1.1,10.8-1.4,11.1-3.8,37.6-8.8,46.3-10.9,19.1-50.1,15.1-48.8-11.9.7-14.3,4.9-29.5,5.6-44,0-.4.5-1.3.8-1.3h14.9l-5.6,43.7c-1,7.8,1.2,13.3,9.8,13.4,10.2.2,10.9-8.1,12.3-16,2.4-13.6,3.5-27.5,5.6-41.1h15.2Z"/>
            <path class="cls-1" d="M496.9,28.4l-27.4,42.6-3.4,24.1h-15.7c1.1-9.2,3.2-18.3,3.5-27.5-4.8-13.1-10.4-26-14.6-39.2h14.9l9.6,26.8,16.7-26.8h16.4Z"/>
          </g>
        </g>
      </g>
    </g>
  </g>
</svg>