<?xml version="1.0" encoding="UTF-8"?>
<svg id="_레이어_2" data-name="레이어 2" xmlns="http://www.w3.org/2000/svg" viewBox="0 0 1001.6 150.1">
  <defs>
    <style>
      .cls-1 {
        fill: #fff;
      }
    </style>
  </defs>
  <g id="_레이어_1-2" data-name="레이어 1">
    <g id="kcRIn2.tif">
      <g>
        <path class="cls-1" d="M464.5,58.8v52.3h-17v-51c0-2.1-2.3-8-3.6-9.9-7.8-12-29.4-11-35.7,2-.7,1.5-2.5,7.3-2.5,8.8v50.1h-17v-51c0-1.6-2.1-7.1-3-8.7-7.5-13.2-29.4-12.7-36.2.9-.8,1.6-2.5,6.7-2.5,8.3v50.5h-17V28.6h17v9.1c14.4-16.2,44.2-13.7,54.6,5.6,8.3-17.2,33.1-20.5,48.5-11,9.1,5.7,13.7,15.9,14.4,26.4Z"/>
        <path class="cls-1" d="M169.6,32.8c-15.8-9.3-40.6-7.2-53,6.9-12.8,14.6-13.7,40-2.9,55.9,17.3,25.5,62.6,22,71.7-8.8h-18c-10.8,20.2-43,11.9-43.3-10.8h63.5c2.2-16.7-2.8-34.2-17.9-43.1ZM123.9,62.5c2.5-27.9,44.9-28.2,46.1,0h-46.1Z"/>
        <path class="cls-1" d="M827.4,40.3c-14-16.4-42.9-17.5-58.9-3.7-16.4,14.2-17.7,43.5-5,60.5,17.9,23.9,61.8,19.6,70.6-10.4h-18c-10.9,20.1-43.2,12-43.3-10.8h63.5c1.3-12.6-.5-25.7-8.9-35.6ZM772.8,62.5c2.1-28,44.8-28.2,46.1,0h-46.1Z"/>
        <path class="cls-1" d="M748.9,111.1h-23.5c0-.4-.2-.8-.4-1.1-10.1-10.2-19.4-22.7-29-33.5-.3-.3,0-.8-1-.6v35.1h-17V0h17v64.2l2.6-2.4,27.6-33.2h23.3l-37.4,41.4,37.8,41.1Z"/>
        <path class="cls-1" d="M522.3,26.9c-23.7,0-42.9,19.2-42.9,42.8s19.2,42.8,42.9,42.8,42.9-19.2,42.9-42.8-19.2-42.8-42.9-42.8ZM528.3,96.9c-37.6,9.3-42.1-53.6-7.4-55.1,31.9-1.3,35.4,48.2,7.4,55.1Z"/>
        <polygon class="cls-1" points="98.3 6.9 58.5 111.1 38.9 110.6 0 6.9 18.3 6.9 48.7 93.3 80 6.9 98.3 6.9"/>
        <polygon class="cls-1" points="927.2 28.6 876.7 150.1 858.9 150.1 875.7 109.7 843.3 28.6 862.4 28.6 885.9 91.1 910 28.6 927.2 28.6"/>
        <polygon class="cls-1" points="317.5 28.6 267 150.1 249.2 150.1 265.5 111.1 265.7 109.1 233.5 28.6 252.7 28.6 275.9 91.1 299.6 28.6 317.5 28.6"/>
        <path class="cls-1" d="M656.7,56.6v54.4h-16.5v-46.6c-.1-15.2-10.7-25.3-26.1-22.2-9,1.8-16.1,10.2-16.1,19.5v49.2h-17V28.6h17v9.1c12.6-14.5,40.3-14.2,51.9,1.3,3.1,4.1,6.8,12.4,6.8,17.5Z"/>
        <path class="cls-1" d="M935.5,85.9h17.4c.4,15.5,32.9,16.5,32,1.7-.3-5-4.7-6.6-8.7-8.2-12.8-5.1-37.1-6.9-39.3-24.2-3-23.9,23.7-31.5,42.6-26.9,11.6,2.8,21.1,12.7,20.8,25h-17c.4-13.2-23.8-16.1-28.7-6.2-5.9,12.1,16.8,15.4,24.2,17.8,11.1,3.6,21.8,8.3,22.7,21.6,2.3,35.3-65.9,33.8-66.1-.7Z"/>
        <rect class="cls-1" x="204" width="17" height="111.1"/>
      </g>
    </g>
  </g>
</svg>